{"title":"Grudge Match 2013 R6 XViD-FANTA","uid":9456034,"size":2324923810,"categoryP":"video","categoryS":"movies","magnet":"?xt=urn:btih:189be9e558c8d04f2c0ead37202f387168243a2b&amp;dn=Grudge+Match+2013+R6+XViD-FANTA&amp;tr=udp%3A%2F%2Ftracker.openbittorrent.com%3A80&amp;tr=udp%3A%2F%2Fopen.demonii.com%3A1337&amp;tr=udp%3A%2F%2Ftracker.coppersurfer.tk%3A6969&amp;tr=udp%3A%2F%2Fexodus.desync.com%3A6969","seeders":1,"leechers":0,"uploader":"xxxlavalxxx","files":-1,"time":1389273777,"description":" &lt;a href=&quot;http://www.imdb.com/title/tt1661382/&quot; rel=&quot;nofollow&quot; target=&quot;_NEW&quot;&gt;http://www.imdb.com/title/tt1661382/&lt;/a&gt;\n\n\nA pair of aging boxing rivals are coaxed out of retirement to fight one final bout -- 30 years after their last match.\n\nDirector: Peter Segal\nWriters: Tim Kelleher (screenplay), Rodney Rothman (screenplay)\nStars: Robert De Niro, Sylvester Stallone, Kim Basinger \nGenres: Comedy | Sport\nCountry: USA\nLanguage: English\n\n\nGeneral\nComplete name                            : Grudge Match 2013 R6 DVDSCR XViD-FANTA/Grudge.Match.2013.R6.DVDScr.XviD-FANTA.avi\nFormat                                   : AVI\nFormat/Info                              : Audio Video Interleave\nFormat profile                           : OpenDML\nFormat settings                          : rec\nFile size                                : 2.17 GiB\nDuration                                 : 1h 53mn\nOverall bit rate                         : 2 719 Kbps\nWriting application                      : AVI-Mux GUI 1.17.8.3, Feb 16 201019:42:50\n\nVideo\nID                                       : 0\nFormat                                   : MPEG-4 Visual\nFormat profile                           : Advanced Simple@L5\nFormat settings, BVOP                    : 2\nFormat settings, QPel                    : No\nFormat settings, GMC                     : No warppoints\nFormat settings, Matrix                  : Default (H.263)\nCodec ID                                 : XVID\nCodec ID/Hint                            : XviD\nDuration                                 : 1h 53mn\nBit rate                                 : 2 522 Kbps\nWidth                                    : 1 280 pixels\nHeight                                   : 720 pixels\nDisplay aspect ratio                     : 16:9\nFrame rate                               : 23.976 fps\nColor space                              : YUV\nChroma subsampling                       : 4:2:0\nBit depth                                : 8 bits\nScan type                                : Progressive\nCompression mode                         : Lossy\nBits/(Pixel*Frame)                       : 0.114\nStream size                              : 2.01 GiB (93%)\nWriting library                          : XviD 1.2.1 (UTC 2008-12-04)\n\nAudio\nID                                       : 1\nFormat                                   : AC-3\nFormat/Info                              : Audio Coding 3\nMode extension                           : CM (complete main)\nCodec ID                                 : 2000\nDuration                                 : 1h 53mn\nBit rate mode                            : Constant\nBit rate                                 : 192 Kbps\nChannel(s)                               : 2 channels\nChannel positions                        : Front: L R\nSampling rate                            : 44.1 KHz\nBit depth                                : 16 bits\nCompression mode                         : Lossy\nStream size                              : 157 MiB (7%)\nAlignment                                : Aligned on interleaves\nInterleave, duration                     : 70 ms (1.67 video frames)\nInterleave, preload duration             : 208 ms\nTitle                                    : Grudge Match 2013\n\n\n\nscreens\n &lt;a href=&quot;\nhttp://i.imgur.com/RiUe6Vi.jpg&quot; rel=&quot;nofollow&quot; target=&quot;_NEW&quot;&gt;\nhttp://i.imgur.com/RiUe6Vi.jpg&lt;/a&gt; &lt;a href=&quot;\nhttp://i.imgur.com/cAgAFpA.jpg&quot; rel=&quot;nofollow&quot; target=&quot;_NEW&quot;&gt;\nhttp://i.imgur.com/cAgAFpA.jpg&lt;/a&gt; &lt;a href=&quot;\nhttp://i.imgur.com/i6yIwbp.jpg&quot; rel=&quot;nofollow&quot; target=&quot;_NEW&quot;&gt;\nhttp://i.imgur.com/i6yIwbp.jpg&lt;/a&gt; &lt;a href=&quot;\nhttp://i.imgur.com/ibGGq81.jpg&quot; rel=&quot;nofollow&quot; target=&quot;_NEW&quot;&gt;\nhttp://i.imgur.com/ibGGq81.jpg&lt;/a&gt; &lt;a href=&quot;\nhttp://i.imgur.com/dPizdTw.jpg&quot; rel=&quot;nofollow&quot; target=&quot;_NEW&quot;&gt;\nhttp://i.imgur.com/dPizdTw.jpg&lt;/a&gt; &lt;a href=&quot;\nhttp://i.imgur.com/saGYirf.jpg&quot; rel=&quot;nofollow&quot; target=&quot;_NEW&quot;&gt;\nhttp://i.imgur.com/saGYirf.jpg&lt;/a&gt;","torrent":{"xt":"urn:btih:189be9e558c8d04f2c0ead37202f387168243a2b","amp;dn":"Grudge+Match+2013+R6+XViD-FANTA","amp;tr":["udp%3A%2F%2Ftracker.openbittorrent.com%3A80","udp%3A%2F%2Fopen.demonii.com%3A1337","udp%3A%2F%2Ftracker.coppersurfer.tk%3A6969","udp%3A%2F%2Fexodus.desync.com%3A6969"],"infoHash":"189be9e558c8d04f2c0ead37202f387168243a2b","infoHashBuffer":{"type":"Buffer","data":[24,155,233,229,88,200,208,79,44,14,173,55,32,47,56,113,104,36,58,43]},"announce":[],"urlList":[]}}